<svg width="1800" height="500" viewBox="0 0 1800 500" fill="none" xmlns="http://www.w3.org/2000/svg">
<rect width="1800" height="500" fill="black"/>
<path d="M447.987 307V192.091H493.322C502.038 192.091 509.463 193.755 515.597 197.085C521.732 200.376 526.407 204.958 529.624 210.831C532.879 216.666 534.506 223.399 534.506 231.03C534.506 238.661 532.86 245.393 529.568 251.229C526.277 257.064 521.507 261.609 515.261 264.863C509.051 268.117 501.533 269.744 492.705 269.744H463.81V250.275H488.778C493.453 250.275 497.306 249.471 500.336 247.862C503.403 246.216 505.685 243.953 507.181 241.073C508.715 238.156 509.482 234.808 509.482 231.03C509.482 227.214 508.715 223.885 507.181 221.043C505.685 218.162 503.403 215.937 500.336 214.366C497.269 212.757 493.379 211.953 488.665 211.953H472.282V307H447.987ZM573.678 308.627C568.179 308.627 563.279 307.673 558.978 305.766C554.676 303.821 551.272 300.959 548.766 297.181C546.297 293.366 545.063 288.615 545.063 282.93C545.063 278.142 545.942 274.121 547.7 270.866C549.458 267.612 551.852 264.994 554.882 263.011C557.912 261.029 561.353 259.533 565.206 258.523C569.096 257.513 573.173 256.802 577.437 256.391C582.45 255.867 586.489 255.381 589.557 254.932C592.624 254.446 594.849 253.735 596.233 252.8C597.617 251.865 598.309 250.481 598.309 248.648V248.311C598.309 244.758 597.187 242.008 594.943 240.063C592.736 238.118 589.594 237.146 585.517 237.146C581.215 237.146 577.793 238.099 575.249 240.007C572.705 241.877 571.022 244.234 570.199 247.077L548.093 245.281C549.215 240.045 551.422 235.518 554.714 231.703C558.005 227.85 562.251 224.895 567.45 222.838C572.687 220.743 578.746 219.696 585.629 219.696C590.417 219.696 594.999 220.257 599.375 221.379C603.789 222.501 607.698 224.241 611.102 226.597C614.543 228.954 617.255 231.984 619.238 235.687C621.22 239.353 622.211 243.748 622.211 248.872V307H599.544V295.049H598.87C597.486 297.742 595.635 300.117 593.316 302.175C590.997 304.195 588.21 305.784 584.956 306.944C581.701 308.066 577.942 308.627 573.678 308.627ZM580.523 292.131C584.039 292.131 587.144 291.439 589.837 290.055C592.53 288.634 594.644 286.726 596.177 284.332C597.711 281.938 598.478 279.227 598.478 276.197V267.051C597.73 267.537 596.701 267.986 595.392 268.398C594.12 268.772 592.68 269.127 591.071 269.464C589.463 269.763 587.855 270.044 586.246 270.305C584.638 270.53 583.179 270.736 581.87 270.923C579.064 271.334 576.614 271.989 574.52 272.886C572.425 273.784 570.798 275 569.638 276.533C568.479 278.03 567.899 279.9 567.899 282.144C567.899 285.398 569.077 287.886 571.434 289.607C573.828 291.29 576.857 292.131 580.523 292.131ZM642.335 339.318V220.818H665.9V235.294H666.966C668.014 232.975 669.529 230.618 671.511 228.224C673.531 225.793 676.149 223.773 679.366 222.165C682.621 220.519 686.66 219.696 691.486 219.696C697.77 219.696 703.568 221.342 708.879 224.634C714.191 227.888 718.436 232.807 721.616 239.39C724.795 245.936 726.385 254.146 726.385 264.021C726.385 273.634 724.832 281.751 721.728 288.372C718.661 294.955 714.471 299.949 709.16 303.353C703.886 306.719 697.975 308.403 691.43 308.403C686.791 308.403 682.845 307.636 679.591 306.102C676.374 304.569 673.737 302.642 671.68 300.323C669.622 297.967 668.051 295.591 666.966 293.197H666.237V339.318H642.335ZM665.732 263.909C665.732 269.034 666.443 273.504 667.864 277.319C669.286 281.134 671.343 284.108 674.036 286.24C676.729 288.335 680.002 289.382 683.855 289.382C687.745 289.382 691.037 288.316 693.73 286.184C696.423 284.014 698.462 281.022 699.846 277.207C701.267 273.354 701.978 268.921 701.978 263.909C701.978 258.934 701.286 254.558 699.902 250.78C698.518 247.002 696.479 244.047 693.786 241.915C691.093 239.783 687.783 238.717 683.855 238.717C679.965 238.717 676.673 239.745 673.98 241.803C671.324 243.86 669.286 246.777 667.864 250.555C666.443 254.333 665.732 258.785 665.732 263.909ZM783.175 308.683C774.31 308.683 766.679 306.888 760.283 303.297C753.924 299.669 749.024 294.544 745.583 287.923C742.141 281.265 740.421 273.391 740.421 264.302C740.421 255.437 742.141 247.656 745.583 240.961C749.024 234.265 753.868 229.047 760.115 225.307C766.399 221.566 773.768 219.696 782.221 219.696C787.907 219.696 793.2 220.612 798.1 222.445C803.037 224.241 807.339 226.953 811.005 230.581C814.708 234.209 817.588 238.773 819.645 244.271C821.702 249.732 822.731 256.129 822.731 263.46V270.025H749.959V255.212H800.232C800.232 251.771 799.484 248.723 797.988 246.067C796.491 243.411 794.415 241.335 791.76 239.839C789.141 238.305 786.093 237.538 782.614 237.538C778.986 237.538 775.769 238.38 772.963 240.063C770.195 241.709 768.026 243.935 766.455 246.74C764.884 249.508 764.08 252.594 764.042 255.998V270.081C764.042 274.345 764.828 278.03 766.399 281.134C768.007 284.239 770.27 286.633 773.188 288.316C776.105 289.999 779.565 290.841 783.568 290.841C786.224 290.841 788.655 290.467 790.862 289.719C793.069 288.971 794.958 287.848 796.529 286.352C798.1 284.856 799.297 283.023 800.12 280.854L822.226 282.312C821.104 287.624 818.804 292.262 815.325 296.227C811.884 300.155 807.432 303.222 801.971 305.429C796.547 307.598 790.282 308.683 783.175 308.683ZM839.909 307V220.818H863.082V235.855H863.979C865.55 230.506 868.188 226.466 871.891 223.736C875.594 220.968 879.858 219.584 884.683 219.584C885.88 219.584 887.171 219.659 888.555 219.808C889.939 219.958 891.154 220.164 892.202 220.425V241.634C891.08 241.298 889.527 240.998 887.545 240.737C885.562 240.475 883.748 240.344 882.102 240.344C878.586 240.344 875.444 241.111 872.676 242.644C869.946 244.14 867.776 246.235 866.168 248.928C864.597 251.621 863.811 254.726 863.811 258.242V307H839.909ZM969.032 192.091V307H944.737V192.091H969.032ZM1029.09 308.683C1020.26 308.683 1012.67 306.813 1006.31 303.072C999.989 299.295 995.126 294.058 991.722 287.362C988.356 280.667 986.672 272.961 986.672 264.246C986.672 255.418 988.374 247.675 991.778 241.017C995.22 234.321 1000.1 229.103 1006.42 225.363C1012.74 221.585 1020.26 219.696 1028.98 219.696C1036.5 219.696 1043.08 221.061 1048.73 223.792C1054.38 226.522 1058.85 230.357 1062.14 235.294C1065.43 240.232 1067.24 246.029 1067.58 252.688H1045.02C1044.39 248.386 1042.71 244.926 1039.97 242.308C1037.28 239.652 1033.75 238.324 1029.37 238.324C1025.67 238.324 1022.43 239.334 1019.66 241.354C1016.93 243.336 1014.8 246.235 1013.27 250.05C1011.73 253.866 1010.97 258.485 1010.97 263.909C1010.97 269.408 1011.72 274.083 1013.21 277.936C1014.75 281.789 1016.9 284.725 1019.66 286.745C1022.43 288.765 1025.67 289.775 1029.37 289.775C1032.1 289.775 1034.55 289.214 1036.72 288.092C1038.93 286.969 1040.74 285.342 1042.16 283.21C1043.62 281.041 1044.58 278.441 1045.02 275.411H1067.58C1067.21 281.995 1065.41 287.792 1062.19 292.805C1059.01 297.78 1054.62 301.67 1049.01 304.475C1043.4 307.281 1036.76 308.683 1029.09 308.683ZM1123.4 308.683C1114.69 308.683 1107.15 306.832 1100.79 303.129C1094.47 299.388 1089.59 294.189 1086.15 287.531C1082.71 280.835 1080.98 273.073 1080.98 264.246C1080.98 255.343 1082.71 247.563 1086.15 240.905C1089.59 234.209 1094.47 229.01 1100.79 225.307C1107.15 221.566 1114.69 219.696 1123.4 219.696C1132.12 219.696 1139.64 221.566 1145.96 225.307C1152.32 229.01 1157.22 234.209 1160.66 240.905C1164.1 247.563 1165.82 255.343 1165.82 264.246C1165.82 273.073 1164.1 280.835 1160.66 287.531C1157.22 294.189 1152.32 299.388 1145.96 303.129C1139.64 306.832 1132.12 308.683 1123.4 308.683ZM1123.51 290.168C1127.48 290.168 1130.79 289.045 1133.45 286.801C1136.1 284.519 1138.1 281.415 1139.45 277.487C1140.83 273.56 1141.53 269.09 1141.53 264.077C1141.53 259.065 1140.83 254.595 1139.45 250.668C1138.1 246.74 1136.1 243.635 1133.45 241.354C1130.79 239.072 1127.48 237.931 1123.51 237.931C1119.51 237.931 1116.15 239.072 1113.42 241.354C1110.72 243.635 1108.68 246.74 1107.3 250.668C1105.95 254.595 1105.28 259.065 1105.28 264.077C1105.28 269.09 1105.95 273.56 1107.3 277.487C1108.68 281.415 1110.72 284.519 1113.42 286.801C1116.15 289.045 1119.51 290.168 1123.51 290.168ZM1206.84 257.176V307H1182.94V220.818H1205.72V236.023H1206.73C1208.64 231.011 1211.84 227.046 1216.33 224.129C1220.81 221.174 1226.26 219.696 1232.65 219.696C1238.64 219.696 1243.86 221.005 1248.31 223.624C1252.76 226.242 1256.22 229.982 1258.69 234.845C1261.16 239.67 1262.39 245.431 1262.39 252.126V307H1238.49V256.391C1238.53 251.116 1237.18 247.002 1234.45 244.047C1231.72 241.054 1227.96 239.558 1223.17 239.558C1219.95 239.558 1217.11 240.25 1214.64 241.634C1212.21 243.018 1210.3 245.038 1208.92 247.694C1207.57 250.312 1206.88 253.473 1206.84 257.176ZM1354.52 245.393L1332.63 246.74C1332.26 244.87 1331.45 243.187 1330.22 241.69C1328.99 240.157 1327.36 238.941 1325.34 238.043C1323.36 237.108 1320.98 236.641 1318.21 236.641C1314.51 236.641 1311.39 237.426 1308.84 238.997C1306.3 240.531 1305.03 242.588 1305.03 245.169C1305.03 247.226 1305.85 248.966 1307.5 250.387C1309.14 251.808 1311.97 252.949 1315.97 253.81L1331.57 256.952C1339.95 258.672 1346.19 261.44 1350.31 265.256C1354.42 269.071 1356.48 274.083 1356.48 280.293C1356.48 285.941 1354.81 290.897 1351.49 295.161C1348.19 299.425 1343.67 302.754 1337.91 305.148C1332.18 307.505 1325.58 308.683 1318.1 308.683C1306.69 308.683 1297.6 306.308 1290.83 301.558C1284.1 296.77 1280.15 290.261 1278.99 282.032L1302.5 280.798C1303.21 284.276 1304.93 286.932 1307.66 288.765C1310.4 290.56 1313.89 291.458 1318.16 291.458C1322.35 291.458 1325.71 290.654 1328.26 289.045C1330.84 287.4 1332.15 285.286 1332.18 282.705C1332.15 280.536 1331.23 278.759 1329.43 277.375C1327.64 275.954 1324.87 274.869 1321.13 274.121L1306.21 271.147C1297.79 269.464 1291.52 266.546 1287.41 262.394C1283.33 258.242 1281.29 252.949 1281.29 246.516C1281.29 240.98 1282.79 236.21 1285.78 232.208C1288.81 228.206 1293.06 225.12 1298.52 222.95C1304.02 220.781 1310.45 219.696 1317.82 219.696C1328.71 219.696 1337.27 221.996 1343.52 226.597C1349.8 231.198 1353.47 237.464 1354.52 245.393Z" fill="white"/>
</svg>
