<svg width="24" height="24" viewBox="0 0 24 24" color="currentColor" stroke="currentColor" fill="none" xmlns="http://www.w3.org/2000/svg"><mask id="path-1-inside-1_27_107" fill="white"><path d="M2 4.5C2 2.567 3.567 1 5.5 1H20C20.5523 1 21 1.44772 21 2V22C21 22.5523 20.5523 23 20 23H5.5C3.567 23 2 21.433 2 19.5V4.5Z"/></mask><path d="M2 4.5C2 2.567 3.567 1 5.5 1H20C20.5523 1 21 1.44772 21 2V22C21 22.5523 20.5523 23 20 23H5.5C3.567 23 2 21.433 2 19.5V4.5Z" color="currentColor" stroke="currentColor" stroke-width="6" mask="url(#path-1-inside-1_27_107)"/><path d="M5.5 17H20V22H5.5C4.11929 22 3 20.8807 3 19.5C3 18.1193 4.11929 17 5.5 17Z" color="currentColor" stroke="currentColor" stroke-width="2"/></svg>
