<svg width="20" height="20" viewBox="0 0 20 20" color="currentColor" stroke="currentColor" fill="none" xmlns="http://www.w3.org/2000/svg"><path d="M0 1C0 0.447715 0.447715 0 1 0H2V6C2 6.55228 1.55228 7 1 7V7C0.447715 7 0 6.55228 0 6V1Z" color="currentColor" stroke="currentColor" fill="currentColor"/><path d="M0 14C0 13.4477 0.447715 13 1 13V13C1.55228 13 2 13.4477 2 14V20H1C0.447715 20 0 19.5523 0 19V14Z" color="currentColor" stroke="currentColor" fill="currentColor"/><path d="M2 18H6C6.55228 18 7 18.4477 7 19V19C7 19.5523 6.55228 20 6 20H2V18Z" color="currentColor" stroke="currentColor" fill="currentColor"/><path d="M2 0H6C6.55228 0 7 0.447715 7 1V1C7 1.55228 6.55228 2 6 2H2V0Z" color="currentColor" stroke="currentColor" fill="currentColor"/><path d="M13 1C13 0.447715 13.4477 0 14 0H18V2H14C13.4477 2 13 1.55228 13 1V1Z" color="currentColor" stroke="currentColor" fill="currentColor"/><path d="M18 0H19C19.5523 0 20 0.447715 20 1V6C20 6.55228 19.5523 7 19 7V7C18.4477 7 18 6.55228 18 6V0Z" color="currentColor" stroke="currentColor" fill="currentColor"/><path d="M18 14C18 13.4477 18.4477 13 19 13V13C19.5523 13 20 13.4477 20 14V19C20 19.5523 19.5523 20 19 20H18V14Z" color="currentColor" stroke="currentColor" fill="currentColor"/><path d="M13 19C13 18.4477 13.4477 18 14 18H18V20H14C13.4477 20 13 19.5523 13 19V19Z" color="currentColor" stroke="currentColor" fill="currentColor"/></svg>
